<svg width="214" height="131" viewBox="0 0 214 131" fill="none" xmlns="http://www.w3.org/2000/svg">
<mask id="path-1-outside-1_4_20" maskUnits="userSpaceOnUse" x="11" y="11" width="192" height="109" fill="black">
<rect fill="white" x="11" y="11" width="192" height="109"/>
<path d="M14 53C14 48.5817 17.5817 45 22 45H134C138.418 45 142 48.5817 142 53V109C142 113.418 138.418 117 134 117H22C17.5817 117 14 113.418 14 109V53Z"/>
<path d="M72 22C72 17.5817 75.5817 14 80 14H192C196.418 14 200 17.5817 200 22V78C200 82.4183 196.418 86 192 86H80C75.5817 86 72 82.4183 72 78V22Z"/>
<path d="M72 66.163C66.1363 68.5366 62 74.2853 62 81C62 89.8366 69.1634 97 78 97C85.0904 97 91.1037 92.3879 93.2032 86L80 86C75.5817 86 72 82.4183 72 78V66.163Z"/>
<path d="M152 50C152 58.8366 144.837 66 136 66C127.163 66 120 58.8366 120 50C120 41.1634 127.163 34 136 34C144.837 34 152 41.1634 152 50Z"/>
</mask>
<path d="M14 53C14 48.5817 17.5817 45 22 45H134C138.418 45 142 48.5817 142 53V109C142 113.418 138.418 117 134 117H22C17.5817 117 14 113.418 14 109V53Z" fill="#88C7E8"/>
<path d="M72 22C72 17.5817 75.5817 14 80 14H192C196.418 14 200 17.5817 200 22V78C200 82.4183 196.418 86 192 86H80C75.5817 86 72 82.4183 72 78V22Z" fill="#2F80C2"/>
<path d="M72 66.163C66.1363 68.5366 62 74.2853 62 81C62 89.8366 69.1634 97 78 97C85.0904 97 91.1037 92.3879 93.2032 86L80 86C75.5817 86 72 82.4183 72 78V66.163Z" fill="white"/>
<path d="M152 50C152 58.8366 144.837 66 136 66C127.163 66 120 58.8366 120 50C120 41.1634 127.163 34 136 34C144.837 34 152 41.1634 152 50Z" fill="white"/>
<path d="M80 84.5C76.4101 84.5 73.5 81.5899 73.5 78H70.5C70.5 83.2467 74.7533 87.5 80 87.5V84.5ZM72 66.163H75V61.7122L70.8744 63.3822L72 66.163ZM93.2032 86L96.0532 86.9368L97.3472 83L93.2032 83L93.2032 86ZM22 48H134V42H22V48ZM139 53V109H145V53H139ZM134 114H22V120H134V114ZM17 109V53H11V109H17ZM22 114C19.2386 114 17 111.761 17 109H11C11 115.075 15.9249 120 22 120V114ZM139 109C139 111.761 136.761 114 134 114V120C140.075 120 145 115.075 145 109H139ZM134 48C136.761 48 139 50.2386 139 53H145C145 46.9249 140.075 42 134 42V48ZM22 42C15.9249 42 11 46.9249 11 53H17C17 50.2386 19.2386 48 22 48V42ZM80 17H192V11H80V17ZM197 22V78H203V22H197ZM192 83H80V89H192V83ZM75 78V22H69V78H75ZM197 78C197 80.7614 194.761 83 192 83V89C198.075 89 203 84.0751 203 78H197ZM192 17C194.761 17 197 19.2386 197 22H203C203 15.9249 198.075 11 192 11V17ZM80 11C73.9249 11 69 15.9249 69 22H75C75 19.2386 77.2386 17 80 17V11ZM65 81C65 75.549 68.3559 70.8746 73.1256 68.9439L70.8744 63.3822C63.9168 66.1986 59 73.0215 59 81H65ZM78 94C70.8203 94 65 88.1797 65 81H59C59 91.4934 67.5066 100 78 100V94ZM90.3532 85.0633C88.6463 90.2566 83.7564 94 78 94V100C86.4245 100 93.5611 94.5191 96.0532 86.9368L90.3532 85.0633ZM93.2032 83L80 83L80 89L93.2032 89L93.2032 83ZM75 78V66.163H69V78H75ZM149 50C149 57.1797 143.18 63 136 63V69C146.493 69 155 60.4934 155 50H149ZM136 63C128.82 63 123 57.1797 123 50H117C117 60.4934 125.507 69 136 69V63ZM123 50C123 42.8203 128.82 37 136 37V31C125.507 31 117 39.5066 117 50H123ZM136 37C143.18 37 149 42.8203 149 50H155C155 39.5066 146.493 31 136 31V37Z" fill="white" mask="url(#path-1-outside-1_4_20)"/>
</svg>
