<svg width="364" height="137" viewBox="0 0 364 137" fill="none" xmlns="http://www.w3.org/2000/svg">
<mask id="path-1-outside-1_4_15" maskUnits="userSpaceOnUse" x="14" y="14" width="192" height="109" fill="black">
<rect fill="white" x="14" y="14" width="192" height="109"/>
<path d="M17 56C17 51.5817 20.5817 48 25 48H137C141.418 48 145 51.5817 145 56V112C145 116.418 141.418 120 137 120H25C20.5817 120 17 116.418 17 112V56Z"/>
<path d="M75 25C75 20.5817 78.5817 17 83 17H195C199.418 17 203 20.5817 203 25V81C203 85.4183 199.418 89 195 89H83C78.5817 89 75 85.4183 75 81V25Z"/>
<path d="M75 69.163C69.1363 71.5366 65 77.2853 65 84C65 92.8366 72.1634 100 81 100C88.0904 100 94.1037 95.3879 96.2032 89L83 89C78.5817 89 75 85.4183 75 81V69.163Z"/>
<path d="M155 53C155 61.8366 147.837 69 139 69C130.163 69 123 61.8366 123 53C123 44.1634 130.163 37 139 37C147.837 37 155 44.1634 155 53Z"/>
</mask>
<path d="M17 56C17 51.5817 20.5817 48 25 48H137C141.418 48 145 51.5817 145 56V112C145 116.418 141.418 120 137 120H25C20.5817 120 17 116.418 17 112V56Z" fill="#88C7E8"/>
<path d="M75 25C75 20.5817 78.5817 17 83 17H195C199.418 17 203 20.5817 203 25V81C203 85.4183 199.418 89 195 89H83C78.5817 89 75 85.4183 75 81V25Z" fill="#2F80C2"/>
<path d="M75 69.163C69.1363 71.5366 65 77.2853 65 84C65 92.8366 72.1634 100 81 100C88.0904 100 94.1037 95.3879 96.2032 89L83 89C78.5817 89 75 85.4183 75 81V69.163Z" fill="white"/>
<path d="M155 53C155 61.8366 147.837 69 139 69C130.163 69 123 61.8366 123 53C123 44.1634 130.163 37 139 37C147.837 37 155 44.1634 155 53Z" fill="white"/>
<path d="M83 87.5C79.4101 87.5 76.5 84.5899 76.5 81H73.5C73.5 86.2467 77.7533 90.5 83 90.5V87.5ZM75 69.163H78V64.7122L73.8744 66.3822L75 69.163ZM96.2032 89L99.0532 89.9368L100.347 86L96.2032 86L96.2032 89ZM25 51H137V45H25V51ZM142 56V112H148V56H142ZM137 117H25V123H137V117ZM20 112V56H14V112H20ZM25 117C22.2386 117 20 114.761 20 112H14C14 118.075 18.9249 123 25 123V117ZM142 112C142 114.761 139.761 117 137 117V123C143.075 123 148 118.075 148 112H142ZM137 51C139.761 51 142 53.2386 142 56H148C148 49.9249 143.075 45 137 45V51ZM25 45C18.9249 45 14 49.9249 14 56H20C20 53.2386 22.2386 51 25 51V45ZM83 20H195V14H83V20ZM200 25V81H206V25H200ZM195 86H83V92H195V86ZM78 81V25H72V81H78ZM200 81C200 83.7614 197.761 86 195 86V92C201.075 92 206 87.0751 206 81H200ZM195 20C197.761 20 200 22.2386 200 25H206C206 18.9249 201.075 14 195 14V20ZM83 14C76.9249 14 72 18.9249 72 25H78C78 22.2386 80.2386 20 83 20V14ZM68 84C68 78.549 71.3559 73.8746 76.1256 71.9439L73.8744 66.3822C66.9168 69.1986 62 76.0215 62 84H68ZM81 97C73.8203 97 68 91.1797 68 84H62C62 94.4934 70.5066 103 81 103V97ZM93.3532 88.0633C91.6463 93.2566 86.7564 97 81 97V103C89.4245 103 96.5611 97.5191 99.0532 89.9368L93.3532 88.0633ZM96.2032 86L83 86L83 92L96.2032 92L96.2032 86ZM78 81V69.163H72V81H78ZM152 53C152 60.1797 146.18 66 139 66V72C149.493 72 158 63.4934 158 53H152ZM139 66C131.82 66 126 60.1797 126 53H120C120 63.4934 128.507 72 139 72V66ZM126 53C126 45.8203 131.82 40 139 40V34C128.507 34 120 42.5066 120 53H126ZM139 40C146.18 40 152 45.8203 152 53H158C158 42.5066 149.493 34 139 34V40Z" fill="white" mask="url(#path-1-outside-1_4_15)"/>
<path d="M233 86.696V51.7869H240.381V67.179H240.841L253.403 51.7869H262.25L249.295 67.4176L262.403 86.696H253.574L244.011 72.3437L240.381 76.7756V86.696H233Z" fill="#88C7E8"/>
<path d="M273.423 87.1903C271.753 87.1903 270.264 86.9006 268.957 86.321C267.651 85.7301 266.616 84.8608 265.855 83.7131C265.105 82.554 264.73 81.1108 264.73 79.3835C264.73 77.929 264.997 76.7074 265.531 75.7187C266.065 74.7301 266.793 73.9346 267.713 73.3324C268.634 72.7301 269.679 72.2756 270.849 71.9687C272.031 71.6619 273.27 71.446 274.565 71.321C276.088 71.1619 277.315 71.0142 278.247 70.8778C279.179 70.7301 279.855 70.5142 280.276 70.2301C280.696 69.946 280.906 69.5256 280.906 68.9687V68.8665C280.906 67.7869 280.565 66.9517 279.884 66.3608C279.213 65.7699 278.259 65.4744 277.02 65.4744C275.713 65.4744 274.673 65.7642 273.901 66.3437C273.128 66.9119 272.616 67.6278 272.366 68.4915L265.651 67.946C265.991 66.3551 266.662 64.9801 267.662 63.821C268.662 62.6506 269.952 61.7528 271.531 61.1278C273.122 60.4915 274.963 60.1733 277.054 60.1733C278.509 60.1733 279.901 60.3437 281.23 60.6846C282.571 61.0256 283.759 61.554 284.793 62.2699C285.838 62.9858 286.662 63.9062 287.264 65.0312C287.866 66.1449 288.168 67.4801 288.168 69.0369V86.696H281.281V83.0653H281.077C280.656 83.8835 280.094 84.6051 279.389 85.2301C278.685 85.8437 277.838 86.3267 276.849 86.679C275.861 87.0199 274.719 87.1903 273.423 87.1903ZM275.503 82.179C276.571 82.179 277.514 81.9687 278.332 81.5483C279.151 81.1165 279.793 80.5369 280.259 79.8097C280.724 79.0824 280.957 78.2585 280.957 77.3381V74.5597C280.73 74.7074 280.418 74.8437 280.02 74.9687C279.634 75.0824 279.196 75.1903 278.707 75.2926C278.219 75.3835 277.73 75.4687 277.241 75.5483C276.753 75.6165 276.31 75.679 275.912 75.7358C275.06 75.8608 274.315 76.0596 273.679 76.3324C273.043 76.6051 272.548 76.9744 272.196 77.4403C271.844 77.8949 271.668 78.4631 271.668 79.1449C271.668 80.1335 272.026 80.8892 272.741 81.4119C273.469 81.9233 274.389 82.179 275.503 82.179Z" fill="#88C7E8"/>
<path d="M315.585 67.9801L308.938 68.3892C308.824 67.821 308.58 67.3096 308.205 66.8551C307.83 66.3892 307.335 66.0199 306.722 65.7471C306.119 65.4631 305.398 65.321 304.557 65.321C303.432 65.321 302.483 65.5597 301.71 66.0369C300.938 66.5028 300.551 67.1278 300.551 67.9119C300.551 68.5369 300.801 69.0653 301.301 69.4972C301.801 69.929 302.659 70.2756 303.875 70.5369L308.614 71.4915C311.159 72.0142 313.057 72.8551 314.307 74.0142C315.557 75.1733 316.182 76.696 316.182 78.5824C316.182 80.2983 315.676 81.804 314.665 83.0994C313.665 84.3949 312.29 85.4062 310.54 86.1335C308.801 86.8494 306.795 87.2074 304.523 87.2074C301.057 87.2074 298.295 86.4858 296.239 85.0426C294.193 83.5881 292.994 81.6108 292.642 79.1108L299.784 78.7358C300 79.7926 300.523 80.5994 301.352 81.1562C302.182 81.7017 303.244 81.9744 304.54 81.9744C305.812 81.9744 306.835 81.7301 307.608 81.2415C308.392 80.7415 308.79 80.0994 308.801 79.3153C308.79 78.6562 308.511 78.1165 307.966 77.696C307.42 77.2642 306.58 76.9346 305.443 76.7074L300.909 75.804C298.352 75.2926 296.449 74.4062 295.199 73.1449C293.96 71.8835 293.341 70.2756 293.341 68.321C293.341 66.6392 293.795 65.1903 294.705 63.9744C295.625 62.7585 296.915 61.821 298.574 61.1619C300.244 60.5028 302.199 60.1733 304.438 60.1733C307.744 60.1733 310.347 60.8721 312.244 62.2699C314.153 63.6676 315.267 65.571 315.585 67.9801Z" fill="#88C7E8"/>
<path d="M320.754 86.696V60.5142H328.016V86.696H320.754ZM324.402 57.1392C323.322 57.1392 322.396 56.7812 321.624 56.0653C320.862 55.3381 320.482 54.4687 320.482 53.4574C320.482 52.4574 320.862 51.5994 321.624 50.8835C322.396 50.1562 323.322 49.7926 324.402 49.7926C325.482 49.7926 326.402 50.1562 327.163 50.8835C327.936 51.5994 328.322 52.4574 328.322 53.4574C328.322 54.4687 327.936 55.3381 327.163 56.0653C326.402 56.7812 325.482 57.1392 324.402 57.1392Z" fill="#88C7E8"/>
<path d="M333.832 86.696V60.5142H340.872V65.0824H341.145C341.622 63.4574 342.423 62.2301 343.548 61.4006C344.673 60.5596 345.969 60.1392 347.435 60.1392C347.798 60.1392 348.19 60.1619 348.611 60.2074C349.031 60.2528 349.401 60.3153 349.719 60.3949V66.8381C349.378 66.7358 348.906 66.6449 348.304 66.5653C347.702 66.4858 347.151 66.446 346.651 66.446C345.582 66.446 344.628 66.679 343.787 67.1449C342.957 67.5994 342.298 68.2358 341.81 69.054C341.332 69.8721 341.094 70.8153 341.094 71.8835V86.696H333.832Z" fill="#88C7E8"/>
</svg>
