<svg width="188" height="176" viewBox="0 0 188 176" fill="none" xmlns="http://www.w3.org/2000/svg">
<mask id="path-1-outside-1_3_7" maskUnits="userSpaceOnUse" x="9.625" y="9.62242" width="169" height="97" fill="black">
<rect fill="white" x="9.625" y="9.62242" width="169" height="97"/>
<path d="M12.625 46.714C12.625 42.8518 15.759 39.7208 19.625 39.7208H117.625C121.491 39.7208 124.625 42.8518 124.625 46.714V95.6659C124.625 99.5281 121.491 102.659 117.625 102.659H19.625C15.759 102.659 12.625 99.5281 12.625 95.6659V46.714Z"/>
<path d="M63.375 19.6156C63.375 15.7534 66.509 12.6224 70.375 12.6224H168.375C172.241 12.6224 175.375 15.7534 175.375 19.6156V68.5675C175.375 72.4297 172.241 75.5607 168.375 75.5607H70.375C66.509 75.5607 63.375 72.4297 63.375 68.5675V19.6156Z"/>
<path d="M63.375 58.2203C58.2443 60.2952 54.625 65.3203 54.625 71.19C54.625 78.9144 60.893 85.1762 68.625 85.1762C74.8291 85.1762 80.0907 81.1446 81.9278 75.5607L70.375 75.5607C66.509 75.5607 63.375 72.4297 63.375 68.5675V58.2203Z"/>
<path d="M133.375 44.0915C133.375 51.8159 127.107 58.0778 119.375 58.0778C111.643 58.0778 105.375 51.8159 105.375 44.0915C105.375 36.3671 111.643 30.1053 119.375 30.1053C127.107 30.1053 133.375 36.3671 133.375 44.0915Z"/>
</mask>
<path d="M12.625 46.714C12.625 42.8518 15.759 39.7208 19.625 39.7208H117.625C121.491 39.7208 124.625 42.8518 124.625 46.714V95.6659C124.625 99.5281 121.491 102.659 117.625 102.659H19.625C15.759 102.659 12.625 99.5281 12.625 95.6659V46.714Z" fill="#88C7E8"/>
<path d="M63.375 19.6156C63.375 15.7534 66.509 12.6224 70.375 12.6224H168.375C172.241 12.6224 175.375 15.7534 175.375 19.6156V68.5675C175.375 72.4297 172.241 75.5607 168.375 75.5607H70.375C66.509 75.5607 63.375 72.4297 63.375 68.5675V19.6156Z" fill="#2F80C2"/>
<path d="M63.375 58.2203C58.2443 60.2952 54.625 65.3203 54.625 71.19C54.625 78.9144 60.893 85.1762 68.625 85.1762C74.8291 85.1762 80.0907 81.1446 81.9278 75.5607L70.375 75.5607C66.509 75.5607 63.375 72.4297 63.375 68.5675V58.2203Z" fill="white"/>
<path d="M133.375 44.0915C133.375 51.8159 127.107 58.0778 119.375 58.0778C111.643 58.0778 105.375 51.8159 105.375 44.0915C105.375 36.3671 111.643 30.1053 119.375 30.1053C127.107 30.1053 133.375 36.3671 133.375 44.0915Z" fill="white"/>
<path d="M70.375 74.0607C67.336 74.0607 64.875 71.5999 64.875 68.5675H61.875C61.875 73.2595 65.682 77.0607 70.375 77.0607V74.0607ZM63.375 58.2203H66.375V53.7711L62.2503 55.4391L63.375 58.2203ZM81.9278 75.5607L84.7776 76.4982L86.0731 72.5607L81.9278 72.5607L81.9278 75.5607ZM19.625 42.7208H117.625V36.7208H19.625V42.7208ZM121.625 46.714V95.6659H127.625V46.714H121.625ZM117.625 99.6591H19.625V105.659H117.625V99.6591ZM15.625 95.6659V46.714H9.625V95.6659H15.625ZM19.625 99.6591C17.4131 99.6591 15.625 97.8685 15.625 95.6659H9.625C9.625 101.188 14.1049 105.659 19.625 105.659V99.6591ZM121.625 95.6659C121.625 97.8685 119.837 99.6591 117.625 99.6591V105.659C123.145 105.659 127.625 101.188 127.625 95.6659H121.625ZM117.625 42.7208C119.837 42.7208 121.625 44.5114 121.625 46.714H127.625C127.625 41.1921 123.145 36.7208 117.625 36.7208V42.7208ZM19.625 36.7208C14.1049 36.7208 9.625 41.1921 9.625 46.714H15.625C15.625 44.5114 17.4131 42.7208 19.625 42.7208V36.7208ZM70.375 15.6224H168.375V9.62242H70.375V15.6224ZM172.375 19.6156V68.5675H178.375V19.6156H172.375ZM168.375 72.5607H70.375V78.5607H168.375V72.5607ZM66.375 68.5675V19.6156H60.375V68.5675H66.375ZM172.375 68.5675C172.375 70.7701 170.587 72.5607 168.375 72.5607V78.5607C173.895 78.5607 178.375 74.0894 178.375 68.5675H172.375ZM168.375 15.6224C170.587 15.6224 172.375 17.413 172.375 19.6156H178.375C178.375 14.0937 173.895 9.62242 168.375 9.62242V15.6224ZM70.375 9.62242C64.8549 9.62242 60.375 14.0937 60.375 19.6156H66.375C66.375 17.413 68.1631 15.6224 70.375 15.6224V9.62242ZM57.625 71.19C57.625 66.5858 60.4621 62.6343 64.4997 61.0015L62.2503 55.4391C56.0265 57.956 51.625 64.0548 51.625 71.19H57.625ZM68.625 82.1762C62.5471 82.1762 57.625 77.2547 57.625 71.19H51.625C51.625 80.574 59.2389 88.1762 68.625 88.1762V82.1762ZM79.0781 74.6231C77.6343 79.0114 73.497 82.1762 68.625 82.1762V88.1762C76.1613 88.1762 82.5471 83.2778 84.7776 76.4982L79.0781 74.6231ZM81.9278 72.5607L70.375 72.5607L70.375 78.5607L81.9278 78.5607L81.9278 72.5607ZM66.375 68.5675V58.2203H60.375V68.5675H66.375ZM130.375 44.0915C130.375 50.1563 125.453 55.0778 119.375 55.0778V61.0778C128.761 61.0778 136.375 53.4756 136.375 44.0915H130.375ZM119.375 55.0778C113.297 55.0778 108.375 50.1563 108.375 44.0915H102.375C102.375 53.4756 109.989 61.0778 119.375 61.0778V55.0778ZM108.375 44.0915C108.375 38.0268 113.297 33.1053 119.375 33.1053V27.1053C109.989 27.1053 102.375 34.7075 102.375 44.0915H108.375ZM119.375 33.1053C125.453 33.1053 130.375 38.0268 130.375 44.0915H136.375C136.375 34.7075 128.761 27.1053 119.375 27.1053V33.1053Z" fill="white" mask="url(#path-1-outside-1_3_7)"/>
<path d="M43.8882 155.108V124.592H50.3463V138.047H50.749L61.7412 124.592H69.482L58.1468 138.256L69.6162 155.108H61.8904L53.5232 142.562L50.3463 146.436V155.108H43.8882Z" fill="#88C7E8"/>
<path d="M79.2586 155.54C77.797 155.54 76.4944 155.286 75.351 154.78C74.2075 154.263 73.3027 153.503 72.6365 152.5C71.9802 151.487 71.6521 150.225 71.6521 148.715C71.6521 147.444 71.8858 146.376 72.3531 145.512C72.8204 144.648 73.4568 143.952 74.2622 143.426C75.0676 142.899 75.9824 142.502 77.0065 142.234C78.0406 141.966 79.1244 141.777 80.2579 141.668C81.5903 141.529 82.6642 141.399 83.4795 141.28C84.2948 141.151 84.8865 140.962 85.2544 140.714C85.6223 140.466 85.8062 140.098 85.8062 139.611V139.522C85.8062 138.578 85.5079 137.848 84.9113 137.332C84.3247 136.815 83.4895 136.557 82.4056 136.557C81.2622 136.557 80.3524 136.81 79.6762 137.317C79.0001 137.814 78.5527 138.439 78.3339 139.194L72.4575 138.717C72.7558 137.327 73.3424 136.125 74.2174 135.112C75.0924 134.088 76.221 133.304 77.6031 132.757C78.9951 132.201 80.6059 131.923 82.4355 131.923C83.7082 131.923 84.9262 132.072 86.0896 132.37C87.2629 132.668 88.302 133.13 89.2068 133.756C90.1216 134.382 90.8424 135.186 91.3694 136.17C91.8964 137.143 92.1599 138.31 92.1599 139.671V155.108H86.1343V151.934H85.9554C85.5875 152.649 85.0953 153.28 84.4788 153.826C83.8623 154.363 83.1216 154.785 82.2565 155.093C81.3914 155.391 80.3922 155.54 79.2586 155.54ZM81.0782 151.159C82.0129 151.159 82.8382 150.975 83.5541 150.608C84.27 150.23 84.8318 149.724 85.2395 149.088C85.6471 148.452 85.851 147.732 85.851 146.927V144.499C85.6521 144.628 85.3787 144.747 85.0306 144.856C84.6926 144.956 84.3098 145.05 83.8822 145.139C83.4547 145.219 83.0271 145.293 82.5995 145.363C82.172 145.423 81.7842 145.477 81.4362 145.527C80.6904 145.636 80.0392 145.81 79.4824 146.048C78.9255 146.287 78.493 146.61 78.1848 147.017C77.8765 147.414 77.7224 147.911 77.7224 148.507C77.7224 149.371 78.0356 150.032 78.662 150.489C79.2984 150.936 80.1038 151.159 81.0782 151.159Z" fill="#88C7E8"/>
<path d="M116.15 138.747L110.334 139.105C110.234 138.608 110.02 138.161 109.692 137.764C109.364 137.357 108.932 137.034 108.395 136.795C107.868 136.547 107.236 136.423 106.5 136.423C105.516 136.423 104.686 136.631 104.01 137.049C103.334 137.456 102.995 138.002 102.995 138.688C102.995 139.234 103.214 139.696 103.652 140.073C104.089 140.451 104.84 140.754 105.904 140.982L110.05 141.817C112.277 142.274 113.938 143.009 115.032 144.022C116.125 145.035 116.672 146.366 116.672 148.015C116.672 149.515 116.23 150.831 115.345 151.964C114.47 153.096 113.267 153.98 111.736 154.616C110.214 155.242 108.459 155.555 106.471 155.555C103.438 155.555 101.022 154.924 99.2221 153.662C97.4323 152.391 96.3833 150.662 96.075 148.477L102.324 148.149C102.513 149.073 102.971 149.778 103.696 150.265C104.422 150.742 105.352 150.98 106.486 150.98C107.599 150.98 108.494 150.767 109.17 150.34C109.856 149.902 110.204 149.341 110.214 148.656C110.204 148.08 109.961 147.608 109.483 147.24C109.006 146.863 108.27 146.575 107.276 146.376L103.309 145.586C101.071 145.139 99.406 144.365 98.3123 143.262C97.2284 142.159 96.6865 140.754 96.6865 139.045C96.6865 137.575 97.0843 136.309 97.8797 135.246C98.6851 134.183 99.8137 133.363 101.265 132.787C102.727 132.211 104.437 131.923 106.396 131.923C109.29 131.923 111.567 132.534 113.227 133.756C114.897 134.978 115.872 136.641 116.15 138.747Z" fill="#88C7E8"/>
<path d="M120.673 155.108V132.221H127.027V155.108H120.673ZM123.865 129.271C122.92 129.271 122.11 128.958 121.434 128.332C120.768 127.696 120.435 126.936 120.435 126.052C120.435 125.178 120.768 124.428 121.434 123.802C122.11 123.167 122.92 122.849 123.865 122.849C124.81 122.849 125.615 123.167 126.281 123.802C126.957 124.428 127.295 125.178 127.295 126.052C127.295 126.936 126.957 127.696 126.281 128.332C125.615 128.958 124.81 129.271 123.865 129.271Z" fill="#88C7E8"/>
<path d="M132.117 155.108V132.221H138.276V136.214H138.515C138.933 134.794 139.634 133.721 140.618 132.996C141.602 132.261 142.736 131.893 144.019 131.893C144.337 131.893 144.68 131.913 145.048 131.953C145.416 131.993 145.739 132.047 146.017 132.117V137.749C145.719 137.66 145.306 137.58 144.779 137.511C144.252 137.441 143.77 137.406 143.332 137.406C142.398 137.406 141.563 137.61 140.827 138.017C140.101 138.414 139.524 138.971 139.097 139.686C138.679 140.401 138.47 141.226 138.47 142.159V155.108H132.117Z" fill="#88C7E8"/>
</svg>
